<mxfile host="app.diagrams.net" modified="2023-05-25T06:48:40.705Z" agent="Mozilla/5.0 (Windows NT 10.0; Win64; x64) AppleWebKit/537.36 (KHTML, like Gecko) Chrome/113.0.0.0 Safari/537.36" etag="x3nFlrFPprmeHdFokwtD" version="21.3.4" type="device">
  <diagram name="P치gina-1" id="eGPrered-zXxxrFgkIDY">
    <mxGraphModel dx="1434" dy="739" grid="1" gridSize="10" guides="1" tooltips="1" connect="1" arrows="1" fold="1" page="1" pageScale="1" pageWidth="1169" pageHeight="827" math="0" shadow="0">
      <root>
        <mxCell id="0" />
        <mxCell id="1" parent="0" />
        <mxCell id="r3RYGVM1jOBGxq23ziR6-3" value="" style="edgeStyle=orthogonalEdgeStyle;rounded=0;orthogonalLoop=1;jettySize=auto;html=1;" parent="1" source="r3RYGVM1jOBGxq23ziR6-1" target="r3RYGVM1jOBGxq23ziR6-2" edge="1">
          <mxGeometry relative="1" as="geometry" />
        </mxCell>
        <mxCell id="r3RYGVM1jOBGxq23ziR6-1" value="Inicio" style="ellipse;whiteSpace=wrap;html=1;" parent="1" vertex="1">
          <mxGeometry x="40" y="20" width="100" height="50" as="geometry" />
        </mxCell>
        <mxCell id="r3RYGVM1jOBGxq23ziR6-5" value="" style="edgeStyle=orthogonalEdgeStyle;rounded=0;orthogonalLoop=1;jettySize=auto;html=1;" parent="1" source="r3RYGVM1jOBGxq23ziR6-2" target="r3RYGVM1jOBGxq23ziR6-4" edge="1">
          <mxGeometry relative="1" as="geometry" />
        </mxCell>
        <mxCell id="r3RYGVM1jOBGxq23ziR6-2" value="&lt;div&gt;calificacion1(Real)&lt;/div&gt;&lt;div&gt;calificacion2 (Real)&lt;span style=&quot;&quot;&gt;&lt;/span&gt;&lt;/div&gt;&lt;div&gt;&lt;span style=&quot;&quot;&gt;calificacion3(Real)&lt;/span&gt;&lt;/div&gt;&lt;div&gt;&lt;span style=&quot;&quot;&gt;calificacion4(Real)&lt;/span&gt;&lt;/div&gt;&lt;div&gt;&lt;span style=&quot;&quot;&gt;promedio1(Real)&lt;/span&gt;&lt;/div&gt;&lt;div&gt;&lt;span style=&quot;&quot;&gt;nombre (char)&lt;/span&gt;&lt;/div&gt;&lt;div&gt;&lt;span style=&quot;&quot;&gt;promedio2 (int)&lt;/span&gt;&lt;/div&gt;" style="whiteSpace=wrap;html=1;aspect=fixed;align=left;" parent="1" vertex="1">
          <mxGeometry x="40" y="110" width="120" height="120" as="geometry" />
        </mxCell>
        <mxCell id="r3RYGVM1jOBGxq23ziR6-7" value="" style="edgeStyle=orthogonalEdgeStyle;rounded=0;orthogonalLoop=1;jettySize=auto;html=1;" parent="1" source="r3RYGVM1jOBGxq23ziR6-4" target="r3RYGVM1jOBGxq23ziR6-6" edge="1">
          <mxGeometry relative="1" as="geometry" />
        </mxCell>
        <mxCell id="r3RYGVM1jOBGxq23ziR6-4" value="&#39;Ingresa el nombre del alumno&#39;" style="shape=document;whiteSpace=wrap;html=1;boundedLbl=1;" parent="1" vertex="1">
          <mxGeometry x="40" y="280" width="120" height="80" as="geometry" />
        </mxCell>
        <mxCell id="r3RYGVM1jOBGxq23ziR6-10" value="" style="edgeStyle=orthogonalEdgeStyle;rounded=0;orthogonalLoop=1;jettySize=auto;html=1;" parent="1" source="r3RYGVM1jOBGxq23ziR6-6" target="r3RYGVM1jOBGxq23ziR6-8" edge="1">
          <mxGeometry relative="1" as="geometry" />
        </mxCell>
        <mxCell id="r3RYGVM1jOBGxq23ziR6-6" value="nombre" style="shape=parallelogram;perimeter=parallelogramPerimeter;whiteSpace=wrap;html=1;fixedSize=1;" parent="1" vertex="1">
          <mxGeometry x="30" y="390" width="120" height="60" as="geometry" />
        </mxCell>
        <mxCell id="r3RYGVM1jOBGxq23ziR6-12" value="" style="edgeStyle=orthogonalEdgeStyle;rounded=0;orthogonalLoop=1;jettySize=auto;html=1;" parent="1" source="r3RYGVM1jOBGxq23ziR6-8" target="r3RYGVM1jOBGxq23ziR6-9" edge="1">
          <mxGeometry relative="1" as="geometry" />
        </mxCell>
        <mxCell id="r3RYGVM1jOBGxq23ziR6-8" value="&quot;Ingresa tu calificaci칩n No.1&quot;" style="shape=document;whiteSpace=wrap;html=1;boundedLbl=1;" parent="1" vertex="1">
          <mxGeometry x="30" y="480" width="120" height="80" as="geometry" />
        </mxCell>
        <mxCell id="r3RYGVM1jOBGxq23ziR6-15" value="" style="edgeStyle=orthogonalEdgeStyle;rounded=0;orthogonalLoop=1;jettySize=auto;html=1;" parent="1" source="r3RYGVM1jOBGxq23ziR6-9" target="r3RYGVM1jOBGxq23ziR6-14" edge="1">
          <mxGeometry relative="1" as="geometry" />
        </mxCell>
        <mxCell id="r3RYGVM1jOBGxq23ziR6-9" value="calificacion1" style="shape=parallelogram;perimeter=parallelogramPerimeter;whiteSpace=wrap;html=1;fixedSize=1;" parent="1" vertex="1">
          <mxGeometry x="30" y="585" width="120" height="60" as="geometry" />
        </mxCell>
        <mxCell id="r3RYGVM1jOBGxq23ziR6-18" style="edgeStyle=orthogonalEdgeStyle;rounded=0;orthogonalLoop=1;jettySize=auto;html=1;entryX=0.5;entryY=0;entryDx=0;entryDy=0;" parent="1" source="r3RYGVM1jOBGxq23ziR6-14" target="r3RYGVM1jOBGxq23ziR6-17" edge="1">
          <mxGeometry relative="1" as="geometry">
            <mxPoint x="100" y="740" as="targetPoint" />
            <Array as="points">
              <mxPoint x="151" y="720" />
              <mxPoint x="151" y="741" />
              <mxPoint x="100" y="741" />
            </Array>
          </mxGeometry>
        </mxCell>
        <mxCell id="r3RYGVM1jOBGxq23ziR6-19" value="No" style="edgeLabel;html=1;align=center;verticalAlign=middle;resizable=0;points=[];" parent="r3RYGVM1jOBGxq23ziR6-18" vertex="1" connectable="0">
          <mxGeometry x="-0.5625" y="-1" relative="1" as="geometry">
            <mxPoint as="offset" />
          </mxGeometry>
        </mxCell>
        <mxCell id="r3RYGVM1jOBGxq23ziR6-21" style="edgeStyle=orthogonalEdgeStyle;rounded=0;orthogonalLoop=1;jettySize=auto;html=1;entryX=0.5;entryY=0;entryDx=0;entryDy=0;" parent="1" source="r3RYGVM1jOBGxq23ziR6-14" target="r3RYGVM1jOBGxq23ziR6-20" edge="1">
          <mxGeometry relative="1" as="geometry" />
        </mxCell>
        <mxCell id="r3RYGVM1jOBGxq23ziR6-22" value="Si" style="edgeLabel;html=1;align=center;verticalAlign=middle;resizable=0;points=[];" parent="r3RYGVM1jOBGxq23ziR6-21" vertex="1" connectable="0">
          <mxGeometry x="-0.2333" y="1" relative="1" as="geometry">
            <mxPoint as="offset" />
          </mxGeometry>
        </mxCell>
        <mxCell id="r3RYGVM1jOBGxq23ziR6-14" value="calificacion1&amp;gt;=0 Y calificacion1&amp;lt;=10&amp;nbsp;" style="rhombus;whiteSpace=wrap;html=1;" parent="1" vertex="1">
          <mxGeometry x="200" y="650" width="160" height="140" as="geometry" />
        </mxCell>
        <mxCell id="r3RYGVM1jOBGxq23ziR6-54" style="edgeStyle=orthogonalEdgeStyle;rounded=0;orthogonalLoop=1;jettySize=auto;html=1;" parent="1" source="r3RYGVM1jOBGxq23ziR6-17" target="r3RYGVM1jOBGxq23ziR6-53" edge="1">
          <mxGeometry relative="1" as="geometry">
            <Array as="points">
              <mxPoint x="100" y="2180" />
            </Array>
          </mxGeometry>
        </mxCell>
        <mxCell id="r3RYGVM1jOBGxq23ziR6-17" value="&#39; La calificacion ingresada,es incorrecta&#39;" style="shape=document;whiteSpace=wrap;html=1;boundedLbl=1;" parent="1" vertex="1">
          <mxGeometry x="25" y="780" width="150" height="100" as="geometry" />
        </mxCell>
        <mxCell id="r3RYGVM1jOBGxq23ziR6-24" value="" style="edgeStyle=orthogonalEdgeStyle;rounded=0;orthogonalLoop=1;jettySize=auto;html=1;" parent="1" source="r3RYGVM1jOBGxq23ziR6-20" target="r3RYGVM1jOBGxq23ziR6-23" edge="1">
          <mxGeometry relative="1" as="geometry" />
        </mxCell>
        <mxCell id="r3RYGVM1jOBGxq23ziR6-20" value="&quot;Ingresa tu calificaci칩n No.2&quot;" style="shape=document;whiteSpace=wrap;html=1;boundedLbl=1;" parent="1" vertex="1">
          <mxGeometry x="370" y="770" width="120" height="80" as="geometry" />
        </mxCell>
        <mxCell id="r3RYGVM1jOBGxq23ziR6-26" value="" style="edgeStyle=orthogonalEdgeStyle;rounded=0;orthogonalLoop=1;jettySize=auto;html=1;" parent="1" source="r3RYGVM1jOBGxq23ziR6-23" target="r3RYGVM1jOBGxq23ziR6-25" edge="1">
          <mxGeometry relative="1" as="geometry" />
        </mxCell>
        <mxCell id="r3RYGVM1jOBGxq23ziR6-23" value="calificacion2" style="shape=parallelogram;perimeter=parallelogramPerimeter;whiteSpace=wrap;html=1;fixedSize=1;" parent="1" vertex="1">
          <mxGeometry x="370" y="880" width="120" height="60" as="geometry" />
        </mxCell>
        <mxCell id="r3RYGVM1jOBGxq23ziR6-29" style="edgeStyle=orthogonalEdgeStyle;rounded=0;orthogonalLoop=1;jettySize=auto;html=1;entryX=0.56;entryY=-0.02;entryDx=0;entryDy=0;entryPerimeter=0;" parent="1" source="r3RYGVM1jOBGxq23ziR6-25" target="r3RYGVM1jOBGxq23ziR6-28" edge="1">
          <mxGeometry relative="1" as="geometry">
            <Array as="points">
              <mxPoint x="290" y="1040" />
              <mxPoint x="290" y="1050" />
              <mxPoint x="259" y="1050" />
            </Array>
          </mxGeometry>
        </mxCell>
        <mxCell id="r3RYGVM1jOBGxq23ziR6-31" style="edgeStyle=orthogonalEdgeStyle;rounded=0;orthogonalLoop=1;jettySize=auto;html=1;exitX=1;exitY=0.5;exitDx=0;exitDy=0;entryX=0.5;entryY=0;entryDx=0;entryDy=0;" parent="1" source="r3RYGVM1jOBGxq23ziR6-25" target="r3RYGVM1jOBGxq23ziR6-27" edge="1">
          <mxGeometry relative="1" as="geometry" />
        </mxCell>
        <mxCell id="r3RYGVM1jOBGxq23ziR6-25" value="calificacion2&amp;gt;=0 Y calificacion2&amp;lt;=10&amp;nbsp;" style="rhombus;whiteSpace=wrap;html=1;" parent="1" vertex="1">
          <mxGeometry x="350" y="970" width="160" height="140" as="geometry" />
        </mxCell>
        <mxCell id="r3RYGVM1jOBGxq23ziR6-33" value="" style="edgeStyle=orthogonalEdgeStyle;rounded=0;orthogonalLoop=1;jettySize=auto;html=1;" parent="1" source="r3RYGVM1jOBGxq23ziR6-27" target="r3RYGVM1jOBGxq23ziR6-32" edge="1">
          <mxGeometry relative="1" as="geometry" />
        </mxCell>
        <mxCell id="r3RYGVM1jOBGxq23ziR6-27" value="&quot;Ingresa tu calificaci칩n No.3&quot;" style="shape=document;whiteSpace=wrap;html=1;boundedLbl=1;" parent="1" vertex="1">
          <mxGeometry x="510" y="1060" width="120" height="80" as="geometry" />
        </mxCell>
        <mxCell id="r3RYGVM1jOBGxq23ziR6-55" style="edgeStyle=orthogonalEdgeStyle;rounded=0;orthogonalLoop=1;jettySize=auto;html=1;" parent="1" source="r3RYGVM1jOBGxq23ziR6-28" target="r3RYGVM1jOBGxq23ziR6-53" edge="1">
          <mxGeometry relative="1" as="geometry">
            <Array as="points">
              <mxPoint x="130" y="1110" />
              <mxPoint x="130" y="2180" />
            </Array>
          </mxGeometry>
        </mxCell>
        <mxCell id="r3RYGVM1jOBGxq23ziR6-28" value="&#39; La calificacion ingresada,es incorrecta&#39;" style="shape=document;whiteSpace=wrap;html=1;boundedLbl=1;" parent="1" vertex="1">
          <mxGeometry x="175" y="1060" width="150" height="100" as="geometry" />
        </mxCell>
        <mxCell id="r3RYGVM1jOBGxq23ziR6-35" value="" style="edgeStyle=orthogonalEdgeStyle;rounded=0;orthogonalLoop=1;jettySize=auto;html=1;" parent="1" source="r3RYGVM1jOBGxq23ziR6-32" target="r3RYGVM1jOBGxq23ziR6-34" edge="1">
          <mxGeometry relative="1" as="geometry" />
        </mxCell>
        <mxCell id="r3RYGVM1jOBGxq23ziR6-32" value="calificacion3" style="shape=parallelogram;perimeter=parallelogramPerimeter;whiteSpace=wrap;html=1;fixedSize=1;" parent="1" vertex="1">
          <mxGeometry x="510" y="1160" width="120" height="60" as="geometry" />
        </mxCell>
        <mxCell id="r3RYGVM1jOBGxq23ziR6-37" style="edgeStyle=orthogonalEdgeStyle;rounded=0;orthogonalLoop=1;jettySize=auto;html=1;entryX=0.5;entryY=0;entryDx=0;entryDy=0;" parent="1" source="r3RYGVM1jOBGxq23ziR6-34" target="r3RYGVM1jOBGxq23ziR6-36" edge="1">
          <mxGeometry relative="1" as="geometry" />
        </mxCell>
        <mxCell id="r3RYGVM1jOBGxq23ziR6-69" value="Si" style="edgeLabel;html=1;align=center;verticalAlign=middle;resizable=0;points=[];" parent="r3RYGVM1jOBGxq23ziR6-37" vertex="1" connectable="0">
          <mxGeometry x="-0.4545" y="2" relative="1" as="geometry">
            <mxPoint as="offset" />
          </mxGeometry>
        </mxCell>
        <mxCell id="r3RYGVM1jOBGxq23ziR6-39" style="edgeStyle=orthogonalEdgeStyle;rounded=0;orthogonalLoop=1;jettySize=auto;html=1;entryX=0.5;entryY=0;entryDx=0;entryDy=0;" parent="1" source="r3RYGVM1jOBGxq23ziR6-34" target="r3RYGVM1jOBGxq23ziR6-38" edge="1">
          <mxGeometry relative="1" as="geometry" />
        </mxCell>
        <mxCell id="r3RYGVM1jOBGxq23ziR6-70" value="No" style="edgeLabel;html=1;align=center;verticalAlign=middle;resizable=0;points=[];" parent="r3RYGVM1jOBGxq23ziR6-39" vertex="1" connectable="0">
          <mxGeometry x="-0.3818" y="-2" relative="1" as="geometry">
            <mxPoint as="offset" />
          </mxGeometry>
        </mxCell>
        <mxCell id="r3RYGVM1jOBGxq23ziR6-34" value="calificacion3&amp;gt;=0 Y calificacion3&amp;lt;=10&amp;nbsp;" style="rhombus;whiteSpace=wrap;html=1;" parent="1" vertex="1">
          <mxGeometry x="490" y="1250" width="160" height="140" as="geometry" />
        </mxCell>
        <mxCell id="r3RYGVM1jOBGxq23ziR6-57" value="" style="edgeStyle=orthogonalEdgeStyle;rounded=0;orthogonalLoop=1;jettySize=auto;html=1;" parent="1" source="r3RYGVM1jOBGxq23ziR6-36" target="r3RYGVM1jOBGxq23ziR6-40" edge="1">
          <mxGeometry relative="1" as="geometry" />
        </mxCell>
        <mxCell id="r3RYGVM1jOBGxq23ziR6-36" value="&quot;Ingresa tu calificaci칩n No.4&quot;" style="shape=document;whiteSpace=wrap;html=1;boundedLbl=1;" parent="1" vertex="1">
          <mxGeometry x="670" y="1350" width="120" height="80" as="geometry" />
        </mxCell>
        <mxCell id="r3RYGVM1jOBGxq23ziR6-56" style="edgeStyle=orthogonalEdgeStyle;rounded=0;orthogonalLoop=1;jettySize=auto;html=1;entryX=0;entryY=0.5;entryDx=0;entryDy=0;" parent="1" source="r3RYGVM1jOBGxq23ziR6-38" target="r3RYGVM1jOBGxq23ziR6-53" edge="1">
          <mxGeometry relative="1" as="geometry">
            <Array as="points">
              <mxPoint x="140" y="1390" />
              <mxPoint x="140" y="2180" />
              <mxPoint x="1115" y="2180" />
            </Array>
          </mxGeometry>
        </mxCell>
        <mxCell id="r3RYGVM1jOBGxq23ziR6-38" value="&#39; La calificacion ingresada,es incorrecta&#39;" style="shape=document;whiteSpace=wrap;html=1;boundedLbl=1;" parent="1" vertex="1">
          <mxGeometry x="325" y="1340" width="150" height="100" as="geometry" />
        </mxCell>
        <mxCell id="r3RYGVM1jOBGxq23ziR6-65" value="" style="edgeStyle=orthogonalEdgeStyle;rounded=0;orthogonalLoop=1;jettySize=auto;html=1;" parent="1" source="r3RYGVM1jOBGxq23ziR6-40" target="r3RYGVM1jOBGxq23ziR6-58" edge="1">
          <mxGeometry relative="1" as="geometry" />
        </mxCell>
        <mxCell id="r3RYGVM1jOBGxq23ziR6-40" value="calificacion4" style="shape=parallelogram;perimeter=parallelogramPerimeter;whiteSpace=wrap;html=1;fixedSize=1;" parent="1" vertex="1">
          <mxGeometry x="675" y="1450" width="120" height="60" as="geometry" />
        </mxCell>
        <mxCell id="r3RYGVM1jOBGxq23ziR6-46" style="edgeStyle=orthogonalEdgeStyle;rounded=0;orthogonalLoop=1;jettySize=auto;html=1;exitX=0.5;exitY=1;exitDx=0;exitDy=0;entryX=0.5;entryY=0;entryDx=0;entryDy=0;" parent="1" source="r3RYGVM1jOBGxq23ziR6-42" target="r3RYGVM1jOBGxq23ziR6-45" edge="1">
          <mxGeometry relative="1" as="geometry" />
        </mxCell>
        <mxCell id="r3RYGVM1jOBGxq23ziR6-42" value="&lt;div&gt;promedio1=(calificacion1+calificacion2+calificacion3+calificacion4)/4&lt;/div&gt;&lt;div&gt;promedio2 = redon(promedio1)&lt;span style=&quot;&quot;&gt;&lt;/span&gt;&lt;/div&gt;" style="rounded=0;whiteSpace=wrap;html=1;" parent="1" vertex="1">
          <mxGeometry x="724.8" y="1740" width="410" height="60" as="geometry" />
        </mxCell>
        <mxCell id="r3RYGVM1jOBGxq23ziR6-49" style="edgeStyle=orthogonalEdgeStyle;rounded=0;orthogonalLoop=1;jettySize=auto;html=1;entryX=0.389;entryY=0.01;entryDx=0;entryDy=0;entryPerimeter=0;" parent="1" source="r3RYGVM1jOBGxq23ziR6-45" target="r3RYGVM1jOBGxq23ziR6-47" edge="1">
          <mxGeometry relative="1" as="geometry">
            <mxPoint x="1124.8" y="1960" as="targetPoint" />
            <Array as="points">
              <mxPoint x="1114.8" y="1925" />
              <mxPoint x="1114.8" y="1961" />
              <mxPoint x="1143.8" y="1961" />
            </Array>
          </mxGeometry>
        </mxCell>
        <mxCell id="r3RYGVM1jOBGxq23ziR6-50" value="si" style="edgeLabel;html=1;align=center;verticalAlign=middle;resizable=0;points=[];" parent="r3RYGVM1jOBGxq23ziR6-49" vertex="1" connectable="0">
          <mxGeometry x="-0.5998" relative="1" as="geometry">
            <mxPoint as="offset" />
          </mxGeometry>
        </mxCell>
        <mxCell id="r3RYGVM1jOBGxq23ziR6-52" value="No" style="edgeStyle=orthogonalEdgeStyle;rounded=0;orthogonalLoop=1;jettySize=auto;html=1;exitX=0;exitY=0.5;exitDx=0;exitDy=0;entryX=0.547;entryY=-0.008;entryDx=0;entryDy=0;entryPerimeter=0;" parent="1" source="r3RYGVM1jOBGxq23ziR6-45" edge="1">
          <mxGeometry relative="1" as="geometry">
            <mxPoint x="640.01" y="1978.96" as="targetPoint" />
            <Array as="points">
              <mxPoint x="845" y="1930" />
              <mxPoint x="715" y="1930" />
              <mxPoint x="715" y="1971" />
              <mxPoint x="640" y="1971" />
            </Array>
          </mxGeometry>
        </mxCell>
        <mxCell id="r3RYGVM1jOBGxq23ziR6-45" value="promedio2&amp;gt;=6" style="rhombus;whiteSpace=wrap;html=1;" parent="1" vertex="1">
          <mxGeometry x="844.8" y="1830" width="175" height="190" as="geometry" />
        </mxCell>
        <mxCell id="r3RYGVM1jOBGxq23ziR6-63" style="edgeStyle=orthogonalEdgeStyle;rounded=0;orthogonalLoop=1;jettySize=auto;html=1;" parent="1" source="r3RYGVM1jOBGxq23ziR6-47" target="r3RYGVM1jOBGxq23ziR6-53" edge="1">
          <mxGeometry relative="1" as="geometry" />
        </mxCell>
        <mxCell id="r3RYGVM1jOBGxq23ziR6-47" value="&#39;Felicidades &#39;,nombre,&#39; aprobaste con: &#39;,promedio2" style="shape=document;whiteSpace=wrap;html=1;boundedLbl=1;" parent="1" vertex="1">
          <mxGeometry x="1034.8" y="1970" width="280" height="100" as="geometry" />
        </mxCell>
        <mxCell id="r3RYGVM1jOBGxq23ziR6-62" style="edgeStyle=orthogonalEdgeStyle;rounded=0;orthogonalLoop=1;jettySize=auto;html=1;" parent="1" source="r3RYGVM1jOBGxq23ziR6-51" target="r3RYGVM1jOBGxq23ziR6-53" edge="1">
          <mxGeometry relative="1" as="geometry">
            <Array as="points">
              <mxPoint x="610" y="2180" />
            </Array>
          </mxGeometry>
        </mxCell>
        <mxCell id="r3RYGVM1jOBGxq23ziR6-51" value="&#39;Lamentablemente &#39;,nombre,&#39;&amp;nbsp; tu promedio es de no aprodado con: &#39;,promedio2" style="shape=document;whiteSpace=wrap;html=1;boundedLbl=1;" parent="1" vertex="1">
          <mxGeometry x="400" y="1980" width="430" height="130" as="geometry" />
        </mxCell>
        <mxCell id="r3RYGVM1jOBGxq23ziR6-53" value="FIN" style="ellipse;whiteSpace=wrap;html=1;fillColor=#d5e8d4;strokeColor=#82b366;" parent="1" vertex="1">
          <mxGeometry x="1114.8" y="2160" width="120" height="80" as="geometry" />
        </mxCell>
        <mxCell id="r3RYGVM1jOBGxq23ziR6-60" style="edgeStyle=orthogonalEdgeStyle;rounded=0;orthogonalLoop=1;jettySize=auto;html=1;entryX=0.3;entryY=-0.02;entryDx=0;entryDy=0;entryPerimeter=0;" parent="1" source="r3RYGVM1jOBGxq23ziR6-58" target="r3RYGVM1jOBGxq23ziR6-59" edge="1">
          <mxGeometry relative="1" as="geometry">
            <Array as="points">
              <mxPoint x="620" y="1600" />
              <mxPoint x="620" y="1610" />
              <mxPoint x="475" y="1610" />
            </Array>
          </mxGeometry>
        </mxCell>
        <mxCell id="r3RYGVM1jOBGxq23ziR6-66" value="No" style="edgeLabel;html=1;align=center;verticalAlign=middle;resizable=0;points=[];" parent="r3RYGVM1jOBGxq23ziR6-60" vertex="1" connectable="0">
          <mxGeometry x="0.0235" y="-2" relative="1" as="geometry">
            <mxPoint as="offset" />
          </mxGeometry>
        </mxCell>
        <mxCell id="r3RYGVM1jOBGxq23ziR6-67" style="edgeStyle=orthogonalEdgeStyle;rounded=0;orthogonalLoop=1;jettySize=auto;html=1;entryX=0.5;entryY=0;entryDx=0;entryDy=0;" parent="1" source="r3RYGVM1jOBGxq23ziR6-58" target="r3RYGVM1jOBGxq23ziR6-42" edge="1">
          <mxGeometry relative="1" as="geometry">
            <Array as="points">
              <mxPoint x="930" y="1600" />
            </Array>
          </mxGeometry>
        </mxCell>
        <mxCell id="r3RYGVM1jOBGxq23ziR6-68" value="Si" style="edgeLabel;html=1;align=center;verticalAlign=middle;resizable=0;points=[];" parent="r3RYGVM1jOBGxq23ziR6-67" vertex="1" connectable="0">
          <mxGeometry x="-0.4556" y="-3" relative="1" as="geometry">
            <mxPoint as="offset" />
          </mxGeometry>
        </mxCell>
        <mxCell id="r3RYGVM1jOBGxq23ziR6-58" value="calificacion4&amp;gt;=0 Y calificacion4&amp;lt;=10&amp;nbsp;" style="rhombus;whiteSpace=wrap;html=1;" parent="1" vertex="1">
          <mxGeometry x="660" y="1530" width="160" height="140" as="geometry" />
        </mxCell>
        <mxCell id="r3RYGVM1jOBGxq23ziR6-61" style="edgeStyle=orthogonalEdgeStyle;rounded=0;orthogonalLoop=1;jettySize=auto;html=1;" parent="1" source="r3RYGVM1jOBGxq23ziR6-59" target="r3RYGVM1jOBGxq23ziR6-53" edge="1">
          <mxGeometry relative="1" as="geometry">
            <mxPoint x="300" y="2180" as="targetPoint" />
            <Array as="points">
              <mxPoint x="230" y="1680" />
              <mxPoint x="230" y="2180" />
            </Array>
          </mxGeometry>
        </mxCell>
        <mxCell id="r3RYGVM1jOBGxq23ziR6-59" value="&#39; La calificacion ingresada,es incorrecta&#39;" style="shape=document;whiteSpace=wrap;html=1;boundedLbl=1;" parent="1" vertex="1">
          <mxGeometry x="430" y="1630" width="150" height="100" as="geometry" />
        </mxCell>
      </root>
    </mxGraphModel>
  </diagram>
</mxfile>
